<mxfile host="65bd71144e">
    <diagram id="-4WrJbjSjnHUXQ4fFNnX" name="Basic Auth Flow">
        <mxGraphModel dx="1022" dy="622" grid="1" gridSize="10" guides="1" tooltips="1" connect="1" arrows="1" fold="1" page="1" pageScale="1" pageWidth="850" pageHeight="1100" math="0" shadow="0">
            <root>
                <mxCell id="0"/>
                <mxCell id="1" parent="0"/>
                <mxCell id="55" value="" style="whiteSpace=wrap;html=1;aspect=fixed;fillColor=#09555B;strokeColor=#BAC8D3;fontColor=#EEEEEE;rounded=1;" parent="1" vertex="1">
                    <mxGeometry x="20" y="320" width="255" height="255" as="geometry"/>
                </mxCell>
                <mxCell id="13" value="SplashScreen&lt;br&gt;&lt;br&gt;phone checks for token" style="whiteSpace=wrap;html=1;fillColor=#09555B;strokeColor=#BAC8D3;fontColor=#EEEEEE;rounded=1;" parent="1" vertex="1">
                    <mxGeometry x="30" y="50" width="120" height="100" as="geometry"/>
                </mxCell>
                <mxCell id="14" value="&lt;font style=&quot;font-size: 16px&quot;&gt;Start Here&lt;/font&gt;" style="text;html=1;strokeColor=none;fillColor=none;align=center;verticalAlign=middle;whiteSpace=wrap;fontColor=#EEEEEE;rounded=1;" parent="1" vertex="1">
                    <mxGeometry x="40" y="20" width="110" height="20" as="geometry"/>
                </mxCell>
                <mxCell id="18" value="Token Exists" style="whiteSpace=wrap;html=1;fillColor=#09555B;strokeColor=#BAC8D3;fontColor=#EEEEEE;rounded=1;" parent="1" vertex="1">
                    <mxGeometry x="200" y="30" width="120" height="60" as="geometry"/>
                </mxCell>
                <mxCell id="19" value="No Token" style="whiteSpace=wrap;html=1;fillColor=#09555B;strokeColor=#BAC8D3;fontColor=#EEEEEE;rounded=1;" parent="1" vertex="1">
                    <mxGeometry x="200" y="120" width="120" height="60" as="geometry"/>
                </mxCell>
                <mxCell id="20" value="POST /api/auth to validate token" style="whiteSpace=wrap;html=1;fillColor=#09555B;strokeColor=#BAC8D3;fontColor=#EEEEEE;rounded=1;" parent="1" vertex="1">
                    <mxGeometry x="350" y="30" width="120" height="60" as="geometry"/>
                </mxCell>
                <mxCell id="21" value="Token Valid&lt;br&gt;Responds with 200" style="whiteSpace=wrap;html=1;fillColor=#09555B;strokeColor=#BAC8D3;fontColor=#EEEEEE;rounded=1;" parent="1" vertex="1">
                    <mxGeometry x="500" y="30" width="120" height="60" as="geometry"/>
                </mxCell>
                <mxCell id="22" value="Token Not Valid&lt;br&gt;get's 400 back" style="whiteSpace=wrap;html=1;fillColor=#09555B;strokeColor=#BAC8D3;fontColor=#EEEEEE;rounded=1;" parent="1" vertex="1">
                    <mxGeometry x="350" y="120" width="120" height="60" as="geometry"/>
                </mxCell>
                <mxCell id="23" value="fade in animations&lt;br&gt;Sign in&lt;br&gt;Sign up&lt;br&gt;do either using social media&lt;br&gt;fb, google, twitter" style="whiteSpace=wrap;html=1;fillColor=#09555B;strokeColor=#BAC8D3;fontColor=#EEEEEE;rounded=1;" parent="1" vertex="1">
                    <mxGeometry x="280" y="220" width="120" height="140" as="geometry"/>
                </mxCell>
                <mxCell id="24" value="App Logs you in and placing you on the home screen" style="whiteSpace=wrap;html=1;fillColor=#09555B;strokeColor=#BAC8D3;fontColor=#EEEEEE;rounded=1;" parent="1" vertex="1">
                    <mxGeometry x="650" y="30" width="120" height="60" as="geometry"/>
                </mxCell>
                <mxCell id="27" value="" style="endArrow=none;html=1;entryX=0;entryY=0.5;entryDx=0;entryDy=0;strokeColor=#0B4D6A;" parent="1" target="18" edge="1">
                    <mxGeometry width="50" height="50" relative="1" as="geometry">
                        <mxPoint x="150" y="80" as="sourcePoint"/>
                        <mxPoint x="180" y="50" as="targetPoint"/>
                    </mxGeometry>
                </mxCell>
                <mxCell id="29" value="" style="endArrow=none;html=1;entryX=1;entryY=0.75;entryDx=0;entryDy=0;strokeColor=#0B4D6A;" parent="1" target="13" edge="1">
                    <mxGeometry width="50" height="50" relative="1" as="geometry">
                        <mxPoint x="200" y="150" as="sourcePoint"/>
                        <mxPoint x="450" y="210" as="targetPoint"/>
                    </mxGeometry>
                </mxCell>
                <mxCell id="30" value="" style="endArrow=none;html=1;entryX=1;entryY=0.5;entryDx=0;entryDy=0;exitX=0;exitY=0.5;exitDx=0;exitDy=0;strokeColor=#0B4D6A;" parent="1" source="20" target="18" edge="1">
                    <mxGeometry width="50" height="50" relative="1" as="geometry">
                        <mxPoint x="400" y="260" as="sourcePoint"/>
                        <mxPoint x="450" y="210" as="targetPoint"/>
                    </mxGeometry>
                </mxCell>
                <mxCell id="31" value="" style="endArrow=none;html=1;entryX=0.667;entryY=1.017;entryDx=0;entryDy=0;entryPerimeter=0;strokeColor=#0B4D6A;" parent="1" source="23" target="19" edge="1">
                    <mxGeometry width="50" height="50" relative="1" as="geometry">
                        <mxPoint x="400" y="250" as="sourcePoint"/>
                        <mxPoint x="450" y="200" as="targetPoint"/>
                    </mxGeometry>
                </mxCell>
                <mxCell id="32" value="" style="endArrow=none;html=1;entryX=1;entryY=0.5;entryDx=0;entryDy=0;exitX=0;exitY=0.5;exitDx=0;exitDy=0;strokeColor=#0B4D6A;" parent="1" source="21" target="20" edge="1">
                    <mxGeometry width="50" height="50" relative="1" as="geometry">
                        <mxPoint x="400" y="250" as="sourcePoint"/>
                        <mxPoint x="450" y="200" as="targetPoint"/>
                    </mxGeometry>
                </mxCell>
                <mxCell id="33" value="" style="endArrow=none;html=1;entryX=1;entryY=0.5;entryDx=0;entryDy=0;exitX=0;exitY=0.5;exitDx=0;exitDy=0;strokeColor=#0B4D6A;" parent="1" source="24" target="21" edge="1">
                    <mxGeometry width="50" height="50" relative="1" as="geometry">
                        <mxPoint x="400" y="250" as="sourcePoint"/>
                        <mxPoint x="450" y="200" as="targetPoint"/>
                    </mxGeometry>
                </mxCell>
                <mxCell id="35" value="" style="endArrow=none;html=1;entryX=0.5;entryY=1;entryDx=0;entryDy=0;strokeColor=#0B4D6A;" parent="1" target="20" edge="1">
                    <mxGeometry width="50" height="50" relative="1" as="geometry">
                        <mxPoint x="410" y="120" as="sourcePoint"/>
                        <mxPoint x="450" y="200" as="targetPoint"/>
                    </mxGeometry>
                </mxCell>
                <mxCell id="36" value="" style="endArrow=none;html=1;entryX=0.5;entryY=1;entryDx=0;entryDy=0;exitX=0.675;exitY=0.017;exitDx=0;exitDy=0;exitPerimeter=0;strokeColor=#0B4D6A;" parent="1" source="23" target="22" edge="1">
                    <mxGeometry width="50" height="50" relative="1" as="geometry">
                        <mxPoint x="400" y="250" as="sourcePoint"/>
                        <mxPoint x="450" y="200" as="targetPoint"/>
                    </mxGeometry>
                </mxCell>
                <mxCell id="37" value="Sign In" style="whiteSpace=wrap;html=1;fillColor=#09555B;strokeColor=#BAC8D3;fontColor=#EEEEEE;rounded=1;" parent="1" vertex="1">
                    <mxGeometry x="440" y="210" width="120" height="60" as="geometry"/>
                </mxCell>
                <mxCell id="38" value="check if opted in for auto push to cloud" style="whiteSpace=wrap;html=1;fillColor=#09555B;strokeColor=#BAC8D3;fontColor=#EEEEEE;rounded=1;" parent="1" vertex="1">
                    <mxGeometry x="520" y="120" width="120" height="60" as="geometry"/>
                </mxCell>
                <mxCell id="39" value="" style="endArrow=none;html=1;entryX=0.375;entryY=1;entryDx=0;entryDy=0;entryPerimeter=0;exitX=0.575;exitY=-0.033;exitDx=0;exitDy=0;exitPerimeter=0;strokeColor=#0B4D6A;" parent="1" source="37" target="38" edge="1">
                    <mxGeometry width="50" height="50" relative="1" as="geometry">
                        <mxPoint x="400" y="240" as="sourcePoint"/>
                        <mxPoint x="450" y="190" as="targetPoint"/>
                    </mxGeometry>
                </mxCell>
                <mxCell id="40" value="" style="endArrow=none;html=1;exitX=1;exitY=0.5;exitDx=0;exitDy=0;entryX=0;entryY=0.5;entryDx=0;entryDy=0;strokeColor=#0B4D6A;" parent="1" source="23" target="37" edge="1">
                    <mxGeometry width="50" height="50" relative="1" as="geometry">
                        <mxPoint x="400" y="240" as="sourcePoint"/>
                        <mxPoint x="450" y="190" as="targetPoint"/>
                    </mxGeometry>
                </mxCell>
                <mxCell id="41" value="Opted In Already&lt;br&gt;Nothing more to do here" style="whiteSpace=wrap;html=1;fillColor=#09555B;strokeColor=#BAC8D3;fontColor=#EEEEEE;rounded=1;" parent="1" vertex="1">
                    <mxGeometry x="680" y="120" width="120" height="60" as="geometry"/>
                </mxCell>
                <mxCell id="42" value="" style="endArrow=none;html=1;entryX=0.5;entryY=1;entryDx=0;entryDy=0;exitX=0.5;exitY=0;exitDx=0;exitDy=0;strokeColor=#0B4D6A;" parent="1" source="38" target="24" edge="1">
                    <mxGeometry width="50" height="50" relative="1" as="geometry">
                        <mxPoint x="400" y="230" as="sourcePoint"/>
                        <mxPoint x="450" y="180" as="targetPoint"/>
                    </mxGeometry>
                </mxCell>
                <mxCell id="43" value="Actor" style="shape=umlActor;verticalLabelPosition=bottom;verticalAlign=top;html=1;outlineConnect=0;fillColor=#09555B;strokeColor=#BAC8D3;fontColor=#EEEEEE;rounded=1;" parent="1" vertex="1">
                    <mxGeometry x="40" y="480" width="30" height="60" as="geometry"/>
                </mxCell>
                <mxCell id="44" value="Backup up contacts while asking them to opt in for auto updates" style="whiteSpace=wrap;html=1;fillColor=#09555B;strokeColor=#BAC8D3;fontColor=#EEEEEE;rounded=1;" parent="1" vertex="1">
                    <mxGeometry x="610" y="220" width="120" height="60" as="geometry"/>
                </mxCell>
                <mxCell id="45" value="" style="endArrow=none;html=1;entryX=1;entryY=0.5;entryDx=0;entryDy=0;exitX=0;exitY=0.5;exitDx=0;exitDy=0;strokeColor=#0B4D6A;" parent="1" source="41" target="38" edge="1">
                    <mxGeometry width="50" height="50" relative="1" as="geometry">
                        <mxPoint x="400" y="220" as="sourcePoint"/>
                        <mxPoint x="450" y="170" as="targetPoint"/>
                    </mxGeometry>
                </mxCell>
                <mxCell id="46" value="" style="endArrow=none;html=1;entryX=0.667;entryY=1.05;entryDx=0;entryDy=0;entryPerimeter=0;exitX=0.45;exitY=0;exitDx=0;exitDy=0;exitPerimeter=0;strokeColor=#0B4D6A;" parent="1" source="44" target="38" edge="1">
                    <mxGeometry width="50" height="50" relative="1" as="geometry">
                        <mxPoint x="400" y="220" as="sourcePoint"/>
                        <mxPoint x="450" y="170" as="targetPoint"/>
                    </mxGeometry>
                </mxCell>
                <mxCell id="47" value="" style="endArrow=none;html=1;entryX=0.75;entryY=0;entryDx=0;entryDy=0;exitX=0.608;exitY=1.05;exitDx=0;exitDy=0;exitPerimeter=0;strokeColor=#0B4D6A;" parent="1" source="41" target="44" edge="1">
                    <mxGeometry width="50" height="50" relative="1" as="geometry">
                        <mxPoint x="400" y="200" as="sourcePoint"/>
                        <mxPoint x="450" y="150" as="targetPoint"/>
                    </mxGeometry>
                </mxCell>
                <mxCell id="48" value="User" style="whiteSpace=wrap;html=1;fillColor=#09555B;strokeColor=#BAC8D3;fontColor=#EEEEEE;rounded=1;" parent="1" vertex="1">
                    <mxGeometry x="510" y="310" width="260" height="50" as="geometry"/>
                </mxCell>
                <mxCell id="51" value="Contact" style="whiteSpace=wrap;html=1;fillColor=#09555B;strokeColor=#BAC8D3;fontColor=#EEEEEE;rounded=1;" parent="1" vertex="1">
                    <mxGeometry x="490" y="390" width="60" height="60" as="geometry"/>
                </mxCell>
                <mxCell id="52" value="Contact" style="whiteSpace=wrap;html=1;fillColor=#09555B;strokeColor=#BAC8D3;fontColor=#EEEEEE;rounded=1;" parent="1" vertex="1">
                    <mxGeometry x="570" y="390" width="60" height="60" as="geometry"/>
                </mxCell>
                <mxCell id="53" value="Contact" style="whiteSpace=wrap;html=1;fillColor=#09555B;strokeColor=#BAC8D3;fontColor=#EEEEEE;rounded=1;" parent="1" vertex="1">
                    <mxGeometry x="650" y="390" width="60" height="60" as="geometry"/>
                </mxCell>
                <mxCell id="54" value="Contact" style="whiteSpace=wrap;html=1;fillColor=#09555B;strokeColor=#BAC8D3;fontColor=#EEEEEE;rounded=1;" parent="1" vertex="1">
                    <mxGeometry x="730" y="390" width="60" height="60" as="geometry"/>
                </mxCell>
                <mxCell id="56" value="Stranded without my phone...&lt;br&gt;Sure wish I could remember someone's phone number" style="shape=callout;whiteSpace=wrap;html=1;perimeter=calloutPerimeter;fillColor=#09555B;strokeColor=#BAC8D3;fontColor=#EEEEEE;rounded=1;" parent="1" vertex="1">
                    <mxGeometry x="10" y="350" width="120" height="130" as="geometry"/>
                </mxCell>
                <mxCell id="57" value="" style="shape=process;whiteSpace=wrap;html=1;backgroundOutline=1;rotation=-90;fillColor=#09555B;strokeColor=#BAC8D3;fontColor=#EEEEEE;rounded=1;" parent="1" vertex="1">
                    <mxGeometry x="110" y="415" width="180" height="110" as="geometry"/>
                </mxCell>
                <mxCell id="58" value="&lt;font style=&quot;font-size: 15px&quot;&gt;1-800-MY-PHONE&lt;/font&gt;" style="text;html=1;strokeColor=none;fillColor=none;align=center;verticalAlign=middle;whiteSpace=wrap;fontColor=#EEEEEE;rounded=1;" parent="1" vertex="1">
                    <mxGeometry x="125" y="330" width="150" height="50" as="geometry"/>
                </mxCell>
                <mxCell id="59" value="&lt;font style=&quot;font-size: 16px&quot;&gt;Your Own&lt;br&gt;&lt;br&gt;DIAL&lt;br&gt;By&lt;br&gt;NAME&lt;br&gt;&lt;br&gt;Directory&lt;/font&gt;" style="text;html=1;strokeColor=none;fillColor=none;align=center;verticalAlign=middle;whiteSpace=wrap;fontColor=#EEEEEE;rounded=1;" parent="1" vertex="1">
                    <mxGeometry x="140" y="380" width="120" height="180" as="geometry"/>
                </mxCell>
            </root>
        </mxGraphModel>
    </diagram>
    <diagram id="GgkTdC1aBeEJm_gVhjDK" name="Refresh Tokens">
        <mxGraphModel dx="126" dy="622" grid="1" gridSize="10" guides="1" tooltips="1" connect="1" arrows="1" fold="1" page="1" pageScale="1" pageWidth="850" pageHeight="1100" math="0" shadow="0">
            <root>
                <mxCell id="oBzYRwzOLHtykdT450BT-0"/>
                <mxCell id="oBzYRwzOLHtykdT450BT-1" parent="oBzYRwzOLHtykdT450BT-0"/>
                <mxCell id="oBzYRwzOLHtykdT450BT-2" value="&lt;ul&gt;&lt;li&gt;&lt;font style=&quot;font-size: 16px&quot;&gt;alg: &quot;TODO&quot;&lt;/font&gt;&lt;/li&gt;&lt;li&gt;&lt;font style=&quot;font-size: 16px&quot;&gt;typ: &quot;JWT&quot;&amp;nbsp;&lt;/font&gt;&lt;/li&gt;&lt;/ul&gt;" style="text;strokeColor=none;fillColor=none;html=1;whiteSpace=wrap;verticalAlign=middle;overflow=hidden;" vertex="1" parent="oBzYRwzOLHtykdT450BT-1">
                    <mxGeometry x="30" y="80" width="150" height="80" as="geometry"/>
                </mxCell>
                <mxCell id="oBzYRwzOLHtykdT450BT-3" value="JWT_TOKEN" style="text;strokeColor=none;fillColor=none;html=1;fontSize=24;fontStyle=1;verticalAlign=middle;align=center;" vertex="1" parent="oBzYRwzOLHtykdT450BT-1">
                    <mxGeometry x="55" y="20" width="100" height="40" as="geometry"/>
                </mxCell>
                <mxCell id="oBzYRwzOLHtykdT450BT-4" value="&lt;font style=&quot;font-size: 18px&quot;&gt;Header&lt;/font&gt;" style="text;strokeColor=none;fillColor=none;html=1;fontSize=24;fontStyle=1;verticalAlign=middle;align=center;" vertex="1" parent="oBzYRwzOLHtykdT450BT-1">
                    <mxGeometry x="55" y="50" width="100" height="40" as="geometry"/>
                </mxCell>
                <mxCell id="oBzYRwzOLHtykdT450BT-7" value="&lt;ul&gt;&lt;li&gt;&lt;span style=&quot;font-size: 16px&quot;&gt;sub: &quot;1234&quot;&lt;/span&gt;&lt;/li&gt;&lt;li&gt;&lt;span style=&quot;font-size: 16px&quot;&gt;email: &quot;a@a.com&lt;/span&gt;&lt;/li&gt;&lt;li&gt;&lt;span style=&quot;font-size: 16px&quot;&gt;name: &quot;Joe Smo&quot;&lt;/span&gt;&lt;/li&gt;&lt;li&gt;&lt;span style=&quot;font-size: 16px&quot;&gt;iat: 123 expire every 15 min&lt;/span&gt;&lt;/li&gt;&lt;/ul&gt;" style="text;strokeColor=none;fillColor=none;html=1;whiteSpace=wrap;verticalAlign=middle;overflow=hidden;" vertex="1" parent="oBzYRwzOLHtykdT450BT-1">
                    <mxGeometry x="30" y="200" width="245" height="130" as="geometry"/>
                </mxCell>
                <mxCell id="oBzYRwzOLHtykdT450BT-9" value="&lt;font style=&quot;font-size: 18px&quot;&gt;Payload&lt;/font&gt;" style="text;strokeColor=none;fillColor=none;html=1;fontSize=24;fontStyle=1;verticalAlign=middle;align=center;" vertex="1" parent="oBzYRwzOLHtykdT450BT-1">
                    <mxGeometry x="55" y="170" width="100" height="40" as="geometry"/>
                </mxCell>
                <mxCell id="oBzYRwzOLHtykdT450BT-13" value="&lt;ul&gt;&lt;li&gt;&lt;font style=&quot;font-size: 16px&quot;&gt;alg: &quot;TODO&quot;&lt;/font&gt;&lt;/li&gt;&lt;li&gt;&lt;font style=&quot;font-size: 16px&quot;&gt;typ: &quot;JWT&quot;&amp;nbsp;&lt;/font&gt;&lt;/li&gt;&lt;/ul&gt;" style="text;strokeColor=none;fillColor=none;html=1;whiteSpace=wrap;verticalAlign=middle;overflow=hidden;" vertex="1" parent="oBzYRwzOLHtykdT450BT-1">
                    <mxGeometry x="410" y="80" width="150" height="80" as="geometry"/>
                </mxCell>
                <mxCell id="oBzYRwzOLHtykdT450BT-14" value="JWT_TOKEN_EXPIRY" style="text;strokeColor=none;fillColor=none;html=1;fontSize=24;fontStyle=1;verticalAlign=middle;align=center;" vertex="1" parent="oBzYRwzOLHtykdT450BT-1">
                    <mxGeometry x="435" y="20" width="100" height="40" as="geometry"/>
                </mxCell>
                <mxCell id="oBzYRwzOLHtykdT450BT-15" value="&lt;font style=&quot;font-size: 18px&quot;&gt;Header&lt;/font&gt;" style="text;strokeColor=none;fillColor=none;html=1;fontSize=24;fontStyle=1;verticalAlign=middle;align=center;" vertex="1" parent="oBzYRwzOLHtykdT450BT-1">
                    <mxGeometry x="435" y="50" width="100" height="40" as="geometry"/>
                </mxCell>
                <mxCell id="oBzYRwzOLHtykdT450BT-16" value="&lt;ul&gt;&lt;li&gt;&lt;span style=&quot;font-size: 16px&quot;&gt;sub: &quot;1234&quot;&lt;/span&gt;&lt;/li&gt;&lt;li&gt;&lt;span style=&quot;font-size: 16px&quot;&gt;email: &quot;a@a.com&lt;/span&gt;&lt;/li&gt;&lt;li&gt;&lt;span style=&quot;font-size: 16px&quot;&gt;name: &quot;Joe Smo&quot;&lt;/span&gt;&lt;/li&gt;&lt;li&gt;&lt;span style=&quot;font-size: 16px&quot;&gt;iat: 123 expire every 15 min&lt;/span&gt;&lt;/li&gt;&lt;/ul&gt;" style="text;strokeColor=none;fillColor=none;html=1;whiteSpace=wrap;verticalAlign=middle;overflow=hidden;" vertex="1" parent="oBzYRwzOLHtykdT450BT-1">
                    <mxGeometry x="410" y="200" width="245" height="130" as="geometry"/>
                </mxCell>
                <mxCell id="oBzYRwzOLHtykdT450BT-17" value="&lt;font style=&quot;font-size: 18px&quot;&gt;Payload&lt;/font&gt;" style="text;strokeColor=none;fillColor=none;html=1;fontSize=24;fontStyle=1;verticalAlign=middle;align=center;" vertex="1" parent="oBzYRwzOLHtykdT450BT-1">
                    <mxGeometry x="435" y="170" width="100" height="40" as="geometry"/>
                </mxCell>
                <mxCell id="oBzYRwzOLHtykdT450BT-20" value="&lt;font style=&quot;font-size: 18px&quot;&gt;Header&lt;/font&gt;" style="text;strokeColor=none;fillColor=none;html=1;fontSize=24;fontStyle=1;verticalAlign=middle;align=center;" vertex="1" parent="oBzYRwzOLHtykdT450BT-1">
                    <mxGeometry x="30" y="370" width="100" height="40" as="geometry"/>
                </mxCell>
                <mxCell id="oBzYRwzOLHtykdT450BT-21" value="&lt;span style=&quot;color: rgb(240 , 240 , 240) ; font-family: &amp;#34;helvetica&amp;#34; ; font-size: 24px ; font-style: normal ; font-weight: 700 ; letter-spacing: normal ; text-align: center ; text-indent: 0px ; text-transform: none ; word-spacing: 0px ; background-color: rgb(42 , 42 , 42) ; display: inline ; float: none&quot;&gt;Packet&lt;br&gt;&lt;br&gt;&lt;/span&gt;" style="text;whiteSpace=wrap;html=1;" vertex="1" parent="oBzYRwzOLHtykdT450BT-1">
                    <mxGeometry x="70" y="330" width="170" height="30" as="geometry"/>
                </mxCell>
                <mxCell id="oBzYRwzOLHtykdT450BT-22" value="&lt;ul&gt;&lt;li&gt;&lt;font style=&quot;font-size: 16px&quot;&gt;Authorization: &quot;Bearer fjeiaodjfldk&quot;&lt;/font&gt;&lt;/li&gt;&lt;/ul&gt;" style="text;strokeColor=none;fillColor=none;html=1;whiteSpace=wrap;verticalAlign=middle;overflow=hidden;" vertex="1" parent="oBzYRwzOLHtykdT450BT-1">
                    <mxGeometry x="30" y="390" width="320" height="80" as="geometry"/>
                </mxCell>
                <mxCell id="oBzYRwzOLHtykdT450BT-23" value="&lt;font style=&quot;font-size: 18px&quot;&gt;Header&lt;/font&gt;" style="text;strokeColor=none;fillColor=none;html=1;fontSize=24;fontStyle=1;verticalAlign=middle;align=center;" vertex="1" parent="oBzYRwzOLHtykdT450BT-1">
                    <mxGeometry x="410" y="370" width="100" height="40" as="geometry"/>
                </mxCell>
                <mxCell id="oBzYRwzOLHtykdT450BT-24" value="&lt;span style=&quot;color: rgb(240 , 240 , 240) ; font-family: &amp;#34;helvetica&amp;#34; ; font-size: 24px ; font-style: normal ; font-weight: 700 ; letter-spacing: normal ; text-align: center ; text-indent: 0px ; text-transform: none ; word-spacing: 0px ; background-color: rgb(42 , 42 , 42) ; display: inline ; float: none&quot;&gt;Packet&lt;br&gt;&lt;br&gt;&lt;/span&gt;" style="text;whiteSpace=wrap;html=1;" vertex="1" parent="oBzYRwzOLHtykdT450BT-1">
                    <mxGeometry x="450" y="330" width="170" height="30" as="geometry"/>
                </mxCell>
                <mxCell id="oBzYRwzOLHtykdT450BT-25" value="&lt;ul&gt;&lt;li&gt;&lt;font style=&quot;font-size: 16px&quot;&gt;Set-Cookie: refresh_token&lt;/font&gt;&lt;/li&gt;&lt;/ul&gt;" style="text;strokeColor=none;fillColor=none;html=1;whiteSpace=wrap;verticalAlign=middle;overflow=hidden;" vertex="1" parent="oBzYRwzOLHtykdT450BT-1">
                    <mxGeometry x="410" y="390" width="320" height="80" as="geometry"/>
                </mxCell>
            </root>
        </mxGraphModel>
    </diagram>
</mxfile>